<svg width="90" height="40" viewBox="0 0 90 40" fill="none" xmlns="http://www.w3.org/2000/svg">
<path d="M83.9554 35.5695L81.4911 32.7892L78.8839 31.0942L73.4732 26.3049L74.0804 29.5516L75.0893 31.8117L78.1697 36.0718L72.6339 31.5785L69.25 24.861L69.3304 32.7713L71.1339 36.1256L67.6875 33.0583L67.8482 26.9865L65.8214 29.9103L65.3304 31.5247L65.1607 31.0224L65.1161 29.6682L65.7768 28V27.2735L64.3214 26.6278L62.6518 25.713L61.6072 24.8161L57.875 19.2287L57.6429 18.6906L57.25 18.1614L58.2054 18.861L60.0179 20.6816L61.0893 22.5291L62.6429 24.0897L63.75 24.7265L66.9286 25.3632L68.1161 23.0583L70.8304 20.1256L65.8839 23.3543L66.5357 21.3901L66.4464 20.4395L64.4822 19.5695L62.5179 17.7489L58.9197 12.4484L54.4018 7.9103L52.3125 8.9686L50.4286 5.26456L49.7054 5.08519L48.7143 5.65021L47.6697 3.46187L46.875 4.97757L46.0268 5.51568L43.9732 7.43497L42.1161 9.53362L45.8214 7.18385L46.8482 6.67264V6.89685L46.5536 7.78474L45.8125 8.97757L44.3125 9.8834L41.4732 11.1928L29.2947 20.6457L24.4911 25.1121L21.3661 26.1614L26.0536 20.4484L16.8393 27.3274L2.41073 34.8161L10.5179 28.0538L10.8929 26.9148H10.0714L1.42859 29.6771L7.09823 26.7085L9.70537 25.3184L12.2947 23.4888L13.6161 23.1928L14.7947 23.4888L17.1518 24.9058L30.6875 15.0134L43.1875 5.39012L44.3214 3.31837L48.3125 0.197296L52.8304 7.96412L55 6.25111L61.8125 13.704L71.25 20.2332L72.7679 18.7085L73.5357 18.3587L74.1429 18.565L87.9464 32.9955L84.7054 30.4843L79.5089 25.8744L73.9107 21.5964L76.4018 26.5112L78.1786 28.6099L82.0893 31.6143L83.2947 32.8251L86.5536 38.7444L83.9554 35.5695ZM19.0536 29.7578L22.5536 27.7937L25.5447 26.7892L28.9286 24.0986L24.6518 25.0673L31.9018 21.1749L39.2411 16.2601L43.0625 14.574L45.3393 13.1749L40.6161 17.426L38.1518 19.9013L36.4732 22.8161L34.8036 24.1883L29.9822 28.861L38.7679 25.0314L42.7143 23.8206L32.625 28.852L28.5 29.9282L23.3839 32.1076L29.25 27.6861L33.9375 21.8924L26.7947 27.3184L21.6161 29.5247L12.5179 35.3453L19.0536 29.7578Z" fill="#800000"/>
<path d="M48.2768 0.403587L52.6339 7.90135L52.7857 8.1704L53.0268 7.98206L54.9732 6.44843L61.6875 13.7937L61.7054 13.8117L61.7321 13.8296L70.7143 20.0448L69.8482 20.6099L66.125 23.0314L66.6518 21.4529L66.6696 21.3991L66.6607 21.3453L66.5804 20.5022L66.5625 20.3408L66.4196 20.278L64.5446 19.4529L62.6071 17.6592L59.0536 12.3767L59.0357 12.3587L59.0179 12.3408L54.5804 7.88341L54.4464 7.74888L54.2768 7.83857L52.375 8.78924L50.5804 5.26457L50.5268 5.15695L50.4107 5.13005L49.7946 4.97758L49.6875 4.95067L49.5982 5.00449L48.7768 5.47982L47.9107 3.66816L47.6786 3.18386L47.4286 3.65022L46.7768 4.89686L45.9643 5.40807L45.9464 5.42601L45.9286 5.44395L43.8929 7.35426L43.8839 7.36323L43.875 7.3722L42.6518 8.75336L41.3929 10.1794L42.9911 9.16592L45.8839 7.32735L46.7054 6.9148L46.4286 7.73991L45.7143 8.88789L44.25 9.76682L41.4286 11.0493L41.4018 11.0583L41.375 11.0762L29.2143 20.5381L29.2054 20.5471L29.1964 20.5561L25.0625 24.3946L24.4196 24.9955L21.7589 25.8834L25.4554 21.3812L26.8482 19.6771L25.0893 20.9955L16.7679 27.2108L3.45536 34.1256L10.5804 28.1794L10.6429 28.1345L10.6696 28.0628L10.9732 27.139L11.0893 26.7892H10.7143H10.0982H10.0536L10.0179 26.7982L2.86607 29.0852L7.16071 26.8341L9.75893 25.4529L9.77679 25.444L9.79464 25.435L12.3482 23.6233L13.6071 23.3453L14.7321 23.6233L16.9911 24.9866L17.1429 25.0762L17.2857 24.9686L30.75 15.13L43.2411 5.5157L43.2857 5.47982L43.3125 5.43498L44.4286 3.40807L48.2768 0.403587ZM44.1607 14.0538L40.5179 17.3274L40.5089 17.3363L40.5 17.3453L38.0536 19.8027L38.0357 19.8206L38.0179 19.8475L36.3571 22.7265L34.7143 24.0807L34.7054 24.0897L34.6964 24.0987L30.4107 28.2511L29.3482 29.2825L30.7054 28.6906L38.8036 25.1659L41.1875 24.4305L32.5714 28.7265L28.4643 29.7937L28.4464 29.8027L28.4286 29.8117L24.3393 31.5605L29.3036 27.8206L29.3304 27.8027L29.3482 27.7758L33.3304 22.861L34.7232 21.139L32.9554 22.4753L26.7054 27.2197L21.5536 29.417L21.5357 29.426L21.5179 29.435L14.0625 34.1973L19.1161 29.8834L22.5893 27.9283L25.5446 26.9417L25.5893 26.9238L25.625 26.8969L28.5357 24.5919L29.4554 23.8565L28.3036 24.1166L25.5625 24.7354L31.9375 21.3094L31.9464 21.3005L31.9554 21.2915L39.2768 16.3857L43.0804 14.7085L43.0982 14.6996L43.1161 14.6906L44.1607 14.0538ZM73.5357 18.5022L74.0625 18.6816L86.6071 31.7848L84.7946 30.3767L79.5982 25.7758L79.5893 25.7668L79.5804 25.7579L74.4554 21.8386L73.5268 21.13L74.0625 22.1794L76.2768 26.5561L76.2946 26.583L76.3125 26.6099L78.0714 28.6816L78.0893 28.6996L78.1161 28.7175L82 31.704L83.1875 32.8969L85.7321 37.5157L84.0714 35.4888L81.6071 32.7175L81.5804 32.6906L81.5536 32.6726L78.9732 30.9955L73.8661 26.4753L73.2768 25.9552L73.4196 26.7265L73.9554 29.5695L73.9643 29.5964L73.9732 29.6233L74.9643 31.8565L74.9732 31.8834L74.9911 31.9103L77.4732 35.3363L72.7411 31.4978L69.6339 25.3274L69.1161 24.296L69.125 25.4529L69.2054 32.7534V32.8161L69.2411 32.8789L70.6696 35.5426L67.8304 33.0045L67.9821 27.444L68.0089 26.5471L67.5 27.2825L65.7411 29.8206L65.7143 29.8565L65.7054 29.8924L65.3393 31.0852L65.3125 30.9955L65.2679 29.6861L65.8929 28.0718L65.9107 28.0269V27.9731V27.3543V27.1839L65.75 27.1121L64.3839 26.5022L62.7321 25.5964L61.7143 24.7175L58 19.157L57.8214 18.7265L58.125 18.9507L59.9196 20.7534L60.9732 22.565L60.9911 22.5919L61.0179 22.6188L62.5446 24.1525L62.5714 24.1794L62.5982 24.1973L63.6696 24.8161L63.7054 24.8341L63.75 24.8431L66.8125 25.4619L67.0089 25.4978L67.0982 25.3184L68.2321 23.1211L70.1964 20.9955L70.9464 20.1794L71.0714 20.2601L71.2589 20.3857L71.4196 20.2242L72.8393 18.7982L73.5357 18.5022ZM48.3571 0L44.2232 3.2287L43.0714 5.30045L30.6071 14.9058L17.1339 24.7444L14.8393 23.3632L13.6161 23.0583L12.2411 23.3632L9.64286 25.2108L7.04464 26.5919L0 30.278L10.0982 27.0493H10.7143L10.4107 27.9731L1.38393 35.5067L16.9196 27.435L25.2589 21.2108L20.9732 26.4395L24.6429 25.2108L28.3929 24.3677L25.4821 26.6726L22.5 27.6682L18.9821 29.6502L10.9464 36.5112L21.6786 29.6502L26.8661 27.444L33.1429 22.6816L29.1607 27.5964L22.4286 32.6726L28.5536 30.0628L32.6875 28.9866L44.2411 23.2197L38.7321 24.9148L30.625 28.4484L34.9107 24.296L36.5982 22.9148L38.2857 19.991L40.7321 17.5336L46.5446 12.3049L43.0268 14.4574L39.2054 16.1525L31.8571 21.0673L25.2768 24.6009L29.4107 20.7623L41.5446 11.3005L44.375 9.99103L45.9018 9.06727L46.6696 7.83857L46.9732 6.9148V6.4574L45.75 7.07623L42.8393 8.92377L44.0714 7.53363L46.1071 5.62332L46.9821 5.06727L47.6696 3.75785L48.6607 5.83857L49.7321 5.21973L50.3482 5.3722L52.2589 9.13902L54.4018 8.06278L58.8393 12.5202L62.4375 17.8206L64.4286 19.6682L66.3393 20.5112L66.4196 21.3543L65.6518 23.6592L70.0089 20.8161L68.0179 22.9686L66.8661 25.2018L63.8036 24.583L62.7321 23.9641L61.2054 22.4305L60.1339 20.583L58.3036 18.7534L56.6161 17.5247L57.5357 18.7534L57.7679 19.2915L61.5179 24.9058L62.5893 25.8296L64.2768 26.7534L65.6518 27.3722V27.991L64.9911 29.6592L65.0357 31.0583L65.3393 31.9821L65.9554 29.9821L67.7143 27.444L67.5625 33.13L71.6161 36.7444L69.4732 32.7444L69.3929 25.444L72.5268 31.6682L78.875 36.8161L75.2054 31.7399L74.2143 29.5067L73.6786 26.6637L78.8036 31.2018L81.4018 32.8969L83.8482 35.6592L87.3661 39.9641L83.3929 32.7354L82.1696 31.5067L78.2679 28.5112L76.5089 26.4395L74.2857 22.0538L79.4107 25.9731L84.6161 30.583L89.2857 34.1973L74.2143 18.4484L73.5268 18.2153L72.6875 18.6009L71.2321 20.0628L61.9018 13.6054L55.0179 6.07175L52.875 7.76682L48.3571 0Z" fill="#800000"/>
</svg>
