<svg width="36" height="36" viewBox="0 0 36 36" fill="none" xmlns="http://www.w3.org/2000/svg">
<path d="M3.61929 0.790926C2.83824 0.00987697 1.57191 0.00987697 0.790865 0.790926C0.00981593 1.57197 0.00981593 2.8383 0.790865 3.61935L3.61929 0.790926ZM33.7948 35.7949C34.8994 35.7949 35.7948 34.8995 35.7948 33.7949V15.7949C35.7948 14.6903 34.8994 13.7949 33.7948 13.7949C32.6903 13.7949 31.7948 14.6903 31.7948 15.7949V31.7949H15.7948C14.6903 31.7949 13.7948 32.6903 13.7948 33.7949C13.7948 34.8995 14.6903 35.7949 15.7948 35.7949H33.7948ZM0.790865 3.61935L32.3806 35.2091L35.209 32.3807L3.61929 0.790926L0.790865 3.61935Z" fill="#00FFA3"/>
</svg>
