<svg width="145" height="145" viewBox="0 0 145 145" fill="none" xmlns="http://www.w3.org/2000/svg">
<g filter="url(#filter0_b_3_81)">
<circle cx="72.5" cy="72.5" r="72.5" fill="#00FFA3"/>
</g>
<circle cx="73" cy="128" r="3" fill="black"/>
<circle cx="73" cy="72" r="20" fill="white"/>
<path d="M25.9377 62.2149C25.7488 62.9593 25.4115 63.5945 24.9258 64.1205C24.4324 64.6336 23.8193 64.9897 23.0865 65.1889C22.3459 65.375 21.5104 65.3501 20.5799 65.1139L17.9745 64.4526C16.5787 64.0983 15.6084 63.4338 15.0634 62.4591C14.5081 61.4818 14.4011 60.3211 14.7422 58.9771C15.0807 57.6434 15.6985 56.7052 16.5956 56.1625C17.485 55.6069 18.5345 55.4826 19.7441 55.7897L19.8062 55.8054L19.2944 57.8215L19.1704 57.79C18.7878 57.6929 18.4205 57.6877 18.0683 57.7744C17.7188 57.8508 17.4155 58.0269 17.1584 58.3028C16.8909 58.576 16.6955 58.9556 16.5722 59.4416C16.3885 60.1653 16.4664 60.7903 16.806 61.3167C17.1456 61.8431 17.698 62.2034 18.4631 62.3976L21.1305 63.0747C21.8852 63.2662 22.5477 63.2143 23.1179 62.9188C23.6778 62.6207 24.0522 62.0995 24.2411 61.3551C24.4301 60.6107 24.3714 60.0181 24.0651 59.5772C23.7589 59.1363 23.3059 58.8397 22.7062 58.6875L22.5512 58.6481L21.8977 61.2225L20.1608 60.7816L21.326 56.1912L26.8779 57.6004L26.3977 59.4924L25.3586 59.2287L25.2878 59.5078C25.4452 59.6248 25.6011 59.7909 25.7555 60.0062C25.9126 60.2112 26.0177 60.4909 26.0707 60.8456C26.1238 61.2002 26.0794 61.6566 25.9377 62.2149Z" fill="black"/>
<path d="M31.307 48.4419C30.8944 49.1149 30.3883 49.6241 29.7886 49.9696C29.1854 50.3005 28.5354 50.4525 27.8387 50.4257C27.1384 50.3843 26.4336 50.1461 25.7243 49.7113L25.5606 49.6109C24.8513 49.1761 24.3239 48.6588 23.9784 48.0591C23.6238 47.4539 23.4616 46.8102 23.4919 46.1281C23.5131 45.4405 23.73 44.7602 24.1425 44.0873C24.5495 43.4234 25.0536 42.9379 25.6547 42.6308C26.2467 42.3182 26.8901 42.1871 27.5848 42.2377C28.2704 42.2826 28.9588 42.5169 29.6499 42.9406L30.2364 43.3002L27.2176 48.2245C27.6925 48.4907 28.1758 48.5492 28.6675 48.4003C29.1592 48.2513 29.55 47.9404 29.8399 47.4675C30.1354 46.9855 30.2483 46.5667 30.1785 46.2112C30.1087 45.8556 29.9827 45.5407 29.8006 45.2663L31.3985 44.3129C31.5569 44.5852 31.7018 44.9305 31.8332 45.3488C31.961 45.7525 32.0023 46.2158 31.9571 46.7385C31.9028 47.2557 31.6861 47.8235 31.307 48.4419ZM25.9437 47.4248L27.8838 44.2602C27.4705 44.0568 27.0592 44.0236 26.6499 44.1606C26.2462 44.2884 25.9078 44.5752 25.6346 45.0208C25.3503 45.4846 25.2427 45.9253 25.3119 46.3431C25.3811 46.7609 25.5917 47.1214 25.9437 47.4248Z" fill="black"/>
<path d="M39.9377 36.8908C39.5548 37.2465 39.1333 37.4197 38.6732 37.4103C38.2137 37.3858 37.7989 37.1743 37.4286 36.7758L34.3794 33.4936L32.9259 34.8439L31.7933 33.6248L33.2469 32.2745L31.5698 30.4693L33.0468 29.0971L34.7239 30.9023L36.3181 29.4213L37.4506 30.6404L35.8564 32.1214L38.666 35.1458C38.8838 35.3802 39.1021 35.3958 39.3209 35.1925L40.4463 34.1471L41.5788 35.3662L39.9377 36.8908Z" fill="black"/>
<path d="M59.4004 26.1172C58.5729 26.3656 57.7979 26.4368 57.0756 26.3307C56.3532 26.2246 55.7305 25.9493 55.2073 25.505C54.6841 25.0607 54.3059 24.4503 54.0728 23.6739L53.944 23.2448L55.9362 22.6467L56.065 23.0758C56.2582 23.7194 56.6031 24.1449 57.0997 24.3522C57.5932 24.5493 58.1822 24.545 58.8667 24.3395C59.5614 24.131 60.0359 23.8382 60.2902 23.4611C60.5548 23.081 60.6226 22.6764 60.4938 22.2473C60.4048 21.951 60.2459 21.737 60.017 21.6053C59.7984 21.4705 59.5087 21.3959 59.1481 21.3817C58.7946 21.3542 58.3726 21.3584 57.8822 21.3942L57.5067 21.4234C56.7221 21.4808 56.0274 21.4667 55.4225 21.381C54.8248 21.282 54.3216 21.0711 53.9128 20.7483C53.5143 20.4225 53.2169 19.9327 53.0206 19.2788C52.8243 18.625 52.8104 18.0222 52.9788 17.4705C53.1544 16.9055 53.4864 16.416 53.9747 16.0021C54.4701 15.5749 55.1009 15.2463 55.8671 15.0163C56.6333 14.7863 57.3526 14.7151 58.0249 14.8028C58.7043 14.8773 59.2908 15.1244 59.7844 15.5442C60.2851 15.9507 60.652 16.5422 60.8851 17.3186L61.0231 17.7784L59.031 18.3765L58.8929 17.9167C58.7702 17.5081 58.5904 17.2057 58.3533 17.0096C58.1234 16.8002 57.8434 16.6838 57.5134 16.6604C57.1803 16.6267 56.8095 16.6712 56.4008 16.7939C55.7878 16.9779 55.3685 17.2319 55.1428 17.5558C54.9242 17.8665 54.8747 18.221 54.9943 18.6194C55.0741 18.8851 55.208 19.0899 55.396 19.2339C55.5942 19.3749 55.8497 19.4652 56.1623 19.505C56.475 19.5448 56.8596 19.5462 57.3163 19.5094L57.6918 19.4802C58.5071 19.4136 59.234 19.4236 59.8726 19.5104C60.5213 19.594 61.067 19.7977 61.5094 20.1215C61.9519 20.4453 62.2712 20.9341 62.4675 21.5879C62.6638 22.2417 62.6686 22.8696 62.4817 23.4714C62.302 24.0599 61.9487 24.5892 61.4216 25.0593C60.9016 25.5161 60.2279 25.8687 59.4004 26.1172Z" fill="black"/>
<path d="M83.574 25.6097C83.0253 25.4736 82.5566 25.2585 82.168 24.9643C81.782 24.6598 81.5045 24.2943 81.3355 23.8677C81.1794 23.4334 81.1668 22.9522 81.2978 22.4242C81.4287 21.8962 81.662 21.487 81.9978 21.1966C82.3465 20.8984 82.7652 20.7165 83.2541 20.6509C83.7558 20.5775 84.2966 20.6127 84.8763 20.7565L86.9884 21.2802L87.0962 20.8453C87.186 20.483 87.1453 20.1597 86.974 19.8754C86.8053 19.5808 86.4725 19.3719 85.9755 19.2487C85.4889 19.128 85.0983 19.1521 84.8037 19.3208C84.5117 19.4792 84.2858 19.7254 84.126 20.0594L82.4748 19.0071C82.6966 18.6444 82.9818 18.336 83.3306 18.0818C83.6923 17.8198 84.1253 17.647 84.6296 17.5632C85.1468 17.4717 85.7368 17.5081 86.3994 17.6724C87.414 17.9239 88.1534 18.3765 88.6178 19.0302C89.0821 19.6838 89.1949 20.492 88.9562 21.4549L88.2438 24.3279C88.1668 24.6385 88.2732 24.8297 88.5631 24.9016L89.1843 25.0556L88.7838 26.6707L87.4793 26.3472C87.0962 26.2523 86.8036 26.0808 86.6013 25.8328C86.399 25.5849 86.3364 25.3056 86.4134 24.995L86.4173 24.9794L86.1222 24.9063C86.05 25.0203 85.9158 25.1628 85.7195 25.3339C85.5257 25.4947 85.2543 25.6142 84.9052 25.6925C84.5561 25.7708 84.1124 25.7432 83.574 25.6097ZM84.3085 24.1104C84.8572 24.2464 85.3396 24.2067 85.7557 23.9912C86.1847 23.7679 86.4621 23.4026 86.5879 22.8953L86.6264 22.74L84.6541 22.2509C84.2918 22.1611 83.9878 22.1681 83.7422 22.2721C83.4967 22.376 83.3392 22.5678 83.2699 22.8473C83.2006 23.1268 83.2528 23.3816 83.4266 23.6115C83.6004 23.8414 83.8943 24.0077 84.3085 24.1104Z" fill="black"/>
<path d="M94.2312 29.5409L98.0746 22.5976L99.8104 23.5585L99.3764 24.3424L99.6284 24.4819C99.886 24.2587 100.168 24.1464 100.473 24.1449C100.788 24.1486 101.104 24.2382 101.422 24.4138L102.262 24.8788L101.394 26.4466L100.526 25.9662C100.078 25.7182 99.6421 25.6355 99.2185 25.718C98.8 25.7912 98.4539 26.075 98.1801 26.5697L95.995 30.5172L94.2312 29.5409Z" fill="black"/>
<path d="M105.158 37.5535C104.775 37.1978 104.571 36.7902 104.547 36.3307C104.537 35.8706 104.718 35.4413 105.088 35.0428L108.137 31.7606L106.684 30.4102L107.816 29.1911L109.27 30.5415L110.947 28.7362L112.424 30.1084L110.747 31.9136L112.341 33.3946L111.208 34.6137L109.614 33.1327L106.805 36.157C106.587 36.3915 106.587 36.6103 106.806 36.8136L107.931 37.859L106.799 39.0781L105.158 37.5535Z" fill="black"/>
<path d="M113.644 47.5172C113.231 46.8443 113.007 46.1622 112.971 45.471C112.95 44.7834 113.109 44.1352 113.449 43.5264C113.804 42.9211 114.336 42.4011 115.045 41.9662L115.209 41.8659C115.918 41.431 116.618 41.1957 117.309 41.1598C118.01 41.1184 118.657 41.2659 119.251 41.6023C119.854 41.9331 120.362 42.435 120.775 43.108C121.182 43.7718 121.386 44.4413 121.387 45.1163C121.397 45.7858 121.221 46.4186 120.861 47.0148C120.51 47.6054 119.989 48.1125 119.298 48.5362L118.711 48.8958L115.693 43.9715C115.24 44.274 114.968 44.6781 114.878 45.1839C114.788 45.6897 114.888 46.179 115.178 46.6519C115.473 47.1339 115.795 47.4244 116.144 47.5235C116.492 47.6227 116.83 47.6533 117.157 47.6154L117.282 49.472C116.967 49.4896 116.594 49.4621 116.161 49.3894C115.744 49.3202 115.312 49.1468 114.867 48.8694C114.43 48.5863 114.023 48.1356 113.644 47.5172ZM116.983 43.1991L118.923 46.3637C119.292 46.0876 119.508 45.7361 119.572 45.3093C119.641 44.8915 119.539 44.4598 119.266 44.0142C118.981 43.5504 118.637 43.2546 118.234 43.1267C117.83 42.9989 117.413 43.023 116.983 43.1991Z" fill="black"/>
<path d="M118.337 59.1787C118.183 58.5687 118.187 57.9568 118.35 57.3431C118.527 56.7371 118.869 56.1991 119.377 55.729C119.885 55.2589 120.557 54.9176 121.395 54.705L121.643 54.642C122.48 54.4295 123.234 54.4086 123.905 54.5796C124.576 54.7505 125.128 55.0615 125.562 55.5127C126.006 55.9613 126.306 56.4957 126.464 57.116C126.582 57.5813 126.623 57.9834 126.588 58.3225C126.566 58.6692 126.498 58.9618 126.382 59.2002C126.266 59.4386 126.129 59.6332 125.969 59.7838L126.04 60.0629L130.087 59.0355L130.583 60.9896L119.728 63.745L119.24 61.822L120.17 61.5858L120.099 61.3067C119.765 61.2044 119.432 60.9973 119.1 60.6855C118.77 60.384 118.516 59.8817 118.337 59.1787ZM120.193 59.335C120.345 59.9347 120.664 60.3875 121.149 60.6937C121.644 60.9971 122.264 61.0544 123.008 60.8655L123.163 60.8261C123.907 60.6372 124.42 60.2925 124.7 59.7922C124.993 59.2996 125.062 58.7483 124.907 58.1383C124.755 57.5387 124.432 57.0871 123.936 56.7836C123.451 56.4775 122.837 56.4189 122.092 56.6079L121.937 56.6472C121.193 56.8362 120.675 57.1821 120.385 57.6851C120.105 58.1854 120.041 58.7353 120.193 59.335Z" fill="black"/>
<path d="M71.6248 23.8719C71.1024 23.8871 70.6712 23.7396 70.3314 23.4294C70.0019 23.1082 69.8292 22.6757 69.8133 22.132L69.6827 17.6539L67.6995 17.7117L67.651 16.0484L69.6341 15.9906L69.5623 13.5276L71.5774 13.4688L71.6493 15.9318L73.8244 15.8683L73.8729 17.5316L71.6978 17.5951L71.8182 21.7213C71.8275 22.0412 71.9815 22.1968 72.28 22.1881L73.8154 22.1433L73.8639 23.8066L71.6248 23.8719Z" fill="black"/>
<path d="M73 40.3334C90.4534 40.3334 104.667 54.5398 104.667 72.0184C104.667 89.4602 90.4534 103.667 73 103.667C55.5467 103.667 41.3334 89.4602 41.3334 72.0184C41.3334 54.5398 55.5467 40.3334 73 40.3334ZM69.3932 59.4281C68.7208 59.4281 68.0789 59.5808 67.4675 59.8864C66.7034 60.3141 66.0921 60.9862 65.7558 61.7806C65.5419 62.3305 65.2056 63.9803 65.2056 64.0108C64.8694 65.8134 64.686 68.7463 64.686 71.9848C64.686 75.0735 64.8694 77.8812 65.1445 79.7143C65.1751 79.7449 65.5113 81.7918 65.8781 82.4945C66.5506 83.7777 67.8649 84.572 69.271 84.572H69.3932C70.3102 84.5414 72.2359 83.7471 72.2359 83.7166C75.4759 82.3723 81.8643 78.1867 84.4318 75.4065L84.6152 75.2232C84.9515 74.8872 85.3794 74.3678 85.4711 74.2456C85.9601 73.604 86.2047 72.8097 86.2047 72.0184C86.2047 71.1293 85.9296 70.3044 85.4099 69.6323C85.2877 69.5101 84.8292 68.9907 84.4013 68.563C81.8948 65.8745 75.3536 61.475 71.9302 60.1308C71.4106 59.92 70.0962 59.4586 69.3932 59.4281Z" fill="black"/>
<defs>
<filter id="filter0_b_3_81" x="-20" y="-20" width="185" height="185" filterUnits="userSpaceOnUse" color-interpolation-filters="sRGB">
<feFlood flood-opacity="0" result="BackgroundImageFix"/>
<feGaussianBlur in="BackgroundImageFix" stdDeviation="10"/>
<feComposite in2="SourceAlpha" operator="in" result="effect1_backgroundBlur_3_81"/>
<feBlend mode="normal" in="SourceGraphic" in2="effect1_backgroundBlur_3_81" result="shape"/>
</filter>
</defs>
</svg>
